<?xml version="1.0" encoding="UTF-8"?>
<svg id="Laag_1" data-name="Laag 1" xmlns="http://www.w3.org/2000/svg" viewBox="0 0 1024 1024">
  <defs>
    <style>
      .cls-1 {
        stroke: #5a5c5c;
      }

      .cls-1, .cls-2, .cls-3, .cls-4, .cls-5 {
        stroke-miterlimit: 10;
      }

      .cls-1, .cls-2, .cls-4 {
        fill: none;
      }

      .cls-1, .cls-2, .cls-4, .cls-5 {
        stroke-width: 24px;
      }

      .cls-2 {
        stroke: #eac286;
      }

      .cls-6 {
        fill: #b17f4a;
      }

      .cls-6, .cls-7, .cls-8, .cls-9, .cls-10, .cls-11, .cls-12, .cls-13, .cls-14, .cls-15 {
        stroke-width: 0px;
      }

      .cls-7 {
        fill: #ffe2aa;
      }

      .cls-8 {
        fill: #e2b68a;
      }

      .cls-9 {
        fill: #fff;
      }

      .cls-3 {
        fill: #b4d598;
        stroke: #30803a;
        stroke-width: 6px;
      }

      .cls-10 {
        fill: #683c11;
      }

      .cls-4 {
        stroke: #82682e;
      }

      .cls-11 {
        fill: #8b8b8c;
      }

      .cls-12 {
        fill: #ca9e67;
      }

      .cls-5 {
        stroke: #4a494a;
      }

      .cls-5, .cls-13 {
        fill: #afafaf;
      }

      .cls-14 {
        fill: #eac286;
      }

      .cls-15 {
        fill: #d8d8d8;
      }
    </style>
  </defs>
  <path class="cls-5" d="m917.9,337.35c11.42,2.71,2.76,99.9-51.88,399.25-217.75-15.16-435.5-30.33-653.25-45.49-24.31-52.86-48.63-105.72-72.94-158.57l-58.14-227.75s137.43-8,197.69-111.6c0,0,123.95,68.72,196.24,20.09,0,0,70.05,69.77,193.8,7.4,0,0,94.15,112.06,152.29,31.71,24.55,57.28,51.28,102.43,74.66,99.36,12.21-1.6,17.1-15.45,21.54-14.39Z"/>
  <path class="cls-12" d="m850.03,711.99c-235.29,199.97-521.09,37.64-521.09,37.64,0,0-160.51-94.14-181.94-252.59-2.4-17.8-3.06-36.42-1.53-55.79,2.03-25.73,7.91-52.81,18.61-81.18,4.04-10.72,8.8-21.63,14.28-32.71,0,0,90.14-144.07,278.66-75.01,30.47,11.18,63.52,27.91,99.17,51.72,2.3,1.55,4.62,3.13,6.94,4.7,19.65-6.54,49.62-14.14,86.45-13.83,1.12,0,2.26.02,3.4.04,11.51.25,22.57,1.24,33.1,2.82,73.08,10.95,121.63,50,133.86,60.29,12.46,10.5,42.01,36.06,64.41,77.37,10.29,18.98,19.07,41.26,24.02,66.95,21.53,112.21-48.09,197.48-58.34,209.59Z"/>
  <path class="cls-6" d="m850.13,711.99c-235.29,199.97-521.09,37.64-521.09,37.64,0,0-160.51-94.14-181.94-252.59l-.02-.29c142.81,204.83,382.01,274.89,547.53,192.54,136.58-67.95,180.49-218.52,189.84-253.84,10.29,18.98,19.07,41.26,24.02,66.95,21.53,112.21-48.09,197.48-58.34,209.59Z"/>
  <path class="cls-6" d="m645.54,372.39c-59.84-45.18-89.62-67.95-89.35-68.32.08-.1,2.39,1.47,6.94,4.7,20.25-6.75,51.47-14.6,89.85-13.79,11.51.25,22.57,1.24,33.1,2.82,16.81,7.15,33.63,14.31,50.44,21.46,5.68,2.42-85.65-21.12-102.34,4.71-8.07,12.48,2.14,33.45,11.36,48.43Z"/>
  <path class="cls-8" d="m556.2,596.87c-109.57,28.22-206.04-25.78-271.37-62.35-62.64-35.06-135.84-76.04-136.45-137.63-.29-29.07,15.69-53.28,29.99-69.53,12.19-16.88,47.72-62.41,112.72-83.33,42.78-13.77,97.96-16.58,165.93,8.32,76.42,28,130.66,72.11,158,96.76,13.32,12.01,23.83,22.78,31.19,30.66,3.31,5.38,52.85,88.44,14.14,154.81-25.01,42.89-72.85,54.22-104.16,62.28Z"/>
  <path class="cls-7" d="m783.24,419.94c-17.6,91.84-147.24,148.15-248,139.62-129.25-10.94-204.03-109.41-230.17-145.46-7.41-10.21-57.91-79.84-39.19-102.43,14.72-17.75,65.59,1.56,130.43,26.78,141.26,54.96,149.23,80.52,195.6,80.43,38.56-.08,197.15-29.29,191.34,1.06Z"/>
  <path class="cls-14" d="m671.55,522.71c16.1-10.92,122.65-83.76,111.62-106-10.13-20.43-114.39,12.08-136.96,19.27,38.06-32.3,189.17,31.45,25.34,86.73Z"/>
  <path class="cls-2" d="m258.78,319.29c-.98-1.91.6-4.13,2.72-3.82,18.28,2.67,37.32,6.24,56.99,10.91,92.11,21.89,165.88,60.48,220.62,97.04.22.15.45.26.7.33,18.92,5.67,48.34,11.49,83.14,6.23,84.66-12.8,121.62-37.89,145.28-17.28,3.03,2.64,7.09,6.18,8.36,11.99,9.06,41.51-136.31,144.9-266.76,118.4-38.46-7.81-64.47-22.53-112.06-58.14-74.87-56.02-116.85-122.72-139-165.67Z"/>
  <path class="cls-4" d="m783.24,419.94c-17.6,91.84-147.24,148.15-248,139.62-119.94-10.15-192.07-97.42-230.17-145.46-13.03-16.42-60.4-76.14-44.37-97.94,15.55-21.15,83.47,3.42,135.61,22.29,135.7,49.1,145.14,80.53,195.6,80.43,38.56-.08,197.15-29.29,191.34,1.06Z"/>
  <g>
    <path class="cls-10" d="m578.49,816.28c-4.89,0-9.49-.03-13.76-.06-82.4-.54-163.43-19.3-240.8-55.73h0c-18.69-8.8-61.16-35.45-101.75-79.47-22.73-24.65-41.45-51.14-55.64-78.75-17.1-33.26-27.66-68.25-31.37-103.99-2.36-22.74-9.55-91.93,31.85-162.13,39.31-66.66,87.26-93.11,120.56-103.55,100.22-31.43,221.83,30.12,274.55,61.58,29.91-8.58,60.63-12.34,91.41-11.19,37.52,1.41,110.04,11.84,174.25,65.92,10.65,8.97,43.06,36.26,67.22,80.82,8.11,14.96,14.65,30.68,19.45,46.73.14.47,3.46,11.63,5.8,23.66,14.83,76.35-6.03,135.5-6.92,137.98-20.2,55.64-60.65,87.28-82.38,104.28-41.47,32.44-91.29,54.4-148.09,65.28-40.09,7.68-76.9,8.64-104.38,8.64ZM347.06,248c-17.91,0-35.55,2.24-52.3,7.5-29.28,9.18-71.63,32.75-107.06,92.84-37.38,63.4-30.81,126.67-28.65,147.46,6.31,60.82,33.49,117.66,80.78,168.95,38.16,41.39,78.39,66.52,94.33,74.03,74.2,34.94,151.83,52.93,230.73,53.45,56.62.38,162.01,1.07,251.28-68.76,21.23-16.6,56.76-44.4,74.59-93.54.19-.52,19.48-55.47,5.93-125.24-2.1-10.83-5.2-21.26-5.23-21.36-4.33-14.47-10.23-28.66-17.55-42.16-22-40.57-51.8-65.66-61.59-73.91-58.71-49.45-125.25-59-159.69-60.29-26.71-1-53.39,2.04-79.45,9.04l-.1.13c-2.24,3.01-8.56,7.46-16.41,2.78-.44-.26-1.1-.66-1.95-1.18-30.18-18.43-122.01-69.74-207.67-69.74Z"/>
    <g>
      <path class="cls-12" d="m646.36,377.27c-32.35-26.62-64.71-53.23-97.06-79.85"/>
      <path class="cls-10" d="m646.36,377.27c-3.48.66-6.2.07-8.89-1.55,0,0-6.65-4.29-6.65-4.29-22.15-14.17-43.68-29.24-64.68-45.02-8.46-6.2-16.79-12.56-23.12-21.35l12.56-15.27c9.85,4.52,17.7,11.46,25.41,18.57,19.53,17.57,38.47,35.79,56.64,54.79,0,0,5.49,5.7,5.49,5.7,2.11,2.32,3.21,4.88,3.24,8.43h0Z"/>
    </g>
  </g>
  <ellipse class="cls-3" cx="399.89" cy="411.88" rx="16.91" ry="9.38"/>
  <ellipse class="cls-3" cx="464.38" cy="472.8" rx="16.91" ry="9.38" transform="translate(-154.67 236.22) rotate(-24.6)"/>
  <ellipse class="cls-3" cx="556.19" cy="481.26" rx="9.38" ry="16.91" transform="translate(-95.56 822.11) rotate(-68.48)"/>
  <ellipse class="cls-3" cx="451.69" cy="417.89" rx="16.91" ry="9.38" transform="translate(-71 93.16) rotate(-10.92)"/>
  <ellipse class="cls-3" cx="338.22" cy="370.26" rx="9.38" ry="16.91" transform="translate(-162.88 389.79) rotate(-49.82)"/>
  <ellipse class="cls-3" cx="625.42" cy="495.71" rx="16.91" ry="9.38" transform="translate(-168.47 414.36) rotate(-32.55)"/>
  <ellipse class="cls-3" cx="669.41" cy="456.5" rx="16.91" ry="9.38" transform="translate(-140.46 431.87) rotate(-32.55)"/>
  <path class="cls-15" d="m928.91,578.11l-398.4,219.55-368.9-170.3c-27.45-55.3-36.89-108.11-40.37-142.48-.62-6.13,6.85-9.63,11.14-5.22,62.83,64.28,126.51,103.76,177.07,128.09l.06.04,192.49,112.81,184.11-58.75c34.33-9.65,68.13-25.26,99.64-48.98,67.37-50.7,99.29-119.68,114.42-164.34,2.05-6.09,10.7-5.88,12.46.29,7.43,26.11,18.28,74.45,16.27,129.29Z"/>
  <path class="cls-11" d="m625.41,841.47c-22.52.56-44.08.14-63.76-.25-66.04-1.3-239.05-4.7-353.09-141.65-19.71-23.66-35.03-48.18-46.95-72.21l463.8,214.11Z"/>
  <path class="cls-13" d="m928.91,578.11c-1.97,53.95-16.33,114.22-58.57,165.85-65.44,80-161.85,95.44-244.93,97.51l-94.9-43.81,398.4-219.55Z"/>
  <path class="cls-9" d="m686.11,661.85l-184.11,58.75-192.49-112.81c25.15,12.09,47.04,20.43,63.97,26.23,51.74,17.68,185.72,63.47,312.63,27.82Z"/>
  <path class="cls-1" d="m121.23,484.89c-.62-6.12,6.85-9.62,11.15-5.22,94.12,96.29,190.14,136.94,241.09,154.36,65.75,22.47,264.22,90.31,412.29-21.14,67.36-50.7,99.28-119.69,114.41-164.35,2.06-6.08,10.7-5.87,12.46.3,14.77,51.8,42.86,191.01-42.3,295.14-83.17,101.69-216.43,99.07-308.69,97.26-66.03-1.3-239.05-4.7-353.09-141.66-65.05-78.12-82.33-165.37-87.32-214.68Z"/>
</svg>