<?xml version="1.0" encoding="UTF-8"?>
<svg id="Laag_1" data-name="Laag 1" xmlns="http://www.w3.org/2000/svg" viewBox="0 0 512 512">
  <defs>
    <style>
      .cls-1 {
        fill: #b17f4a;
      }

      .cls-1, .cls-2, .cls-3, .cls-4 {
        stroke-width: 0px;
      }

      .cls-2 {
        fill: #e2b68a;
      }

      .cls-3 {
        fill: #683c11;
      }

      .cls-4 {
        fill: #ca9e67;
      }
    </style>
  </defs>
  <path class="cls-4" d="m411.28,347.43c-113.65,96.59-251.7,18.18-251.7,18.18,0,0-77.53-45.47-87.88-122.01-1.16-8.6-1.48-17.59-.74-26.95.98-12.43,3.82-25.51,8.99-39.21,1.95-5.18,4.25-10.45,6.9-15.8,0,0,43.54-69.59,134.6-36.23,14.72,5.4,30.68,13.48,47.9,24.98,1.11.75,2.23,1.51,3.35,2.27,9.49-3.16,23.97-6.83,41.76-6.68.54,0,1.09.01,1.64.02,5.56.12,10.9.6,15.99,1.36,35.3,5.29,58.75,24.15,64.66,29.12,6.02,5.07,20.29,17.42,31.11,37.37,4.97,9.17,9.21,19.93,11.6,32.34,10.4,54.2-23.23,95.39-28.18,101.24Z"/>
  <path class="cls-1" d="m411.33,347.43c-113.65,96.59-251.7,18.18-251.7,18.18,0,0-77.53-45.47-87.88-122.01v-.14c68.97,98.94,184.51,132.78,264.46,93,65.97-32.82,87.18-105.55,91.7-122.61,4.97,9.17,9.21,19.93,11.6,32.34,10.4,54.2-23.23,95.39-28.18,101.24Z"/>
  <path class="cls-1" d="m312.51,183.39c-28.9-21.82-43.29-32.82-43.16-33,.04-.05,1.15.71,3.35,2.27,9.78-3.26,24.86-7.05,43.4-6.66,5.56.12,10.9.6,15.99,1.36,8.12,3.46,16.24,6.91,24.36,10.37,2.74,1.17-41.37-10.2-49.43,2.27-3.9,6.03,1.03,16.16,5.48,23.39Z"/>
  <path class="cls-2" d="m269.35,291.82c-52.93,13.63-99.52-12.45-131.08-30.12-30.26-16.94-65.61-36.73-65.91-66.48-.14-14.04,7.58-25.74,14.49-33.59,5.89-8.15,23.05-30.14,54.45-40.25,20.66-6.65,47.32-8.01,80.15,4.02,36.91,13.52,63.11,34.83,76.32,46.74,6.43,5.8,11.51,11,15.06,14.81,1.6,2.6,25.53,42.72,6.83,74.78-12.08,20.72-35.19,26.19-50.31,30.08Z"/>
  <path class="cls-3" d="m279.92,398.01c-2.3,0-4.46-.01-6.45-.03-39.83-.26-79-9.33-116.4-26.94h0c-21.31-10.04-83.82-54.88-91.29-126.82-1.14-11-4.62-44.47,15.41-78.44,19.02-32.26,42.23-45.05,58.35-50.11,48.44-15.19,107.18,14.5,132.7,29.72,14.44-4.13,29.29-5.94,44.13-5.39,18.15.68,53.23,5.73,84.29,31.89,5.15,4.34,20.82,17.54,32.52,39.1,3.92,7.24,7.09,14.84,9.41,22.61h0c.79,2.07,1.66,5.51,2.81,11.45,7.2,37.04-2.92,65.57-3.36,66.77-9.77,26.92-29.34,42.23-39.85,50.45-42.9,33.55-93.74,35.74-122.27,35.74Zm-117.74-37.82c35.82,16.87,73.28,25.55,111.36,25.8,27.33.18,78.19.52,121.25-33.17,10.24-8.01,27.37-21.41,35.96-45.09.09-.25,9.39-26.75,2.86-60.38-.97-5.01-2.39-9.84-2.51-10.25v-.05c-2.1-6.98-4.95-13.82-8.48-20.33-10.61-19.57-24.98-31.66-29.7-35.64-28.32-23.85-60.4-28.45-77.01-29.07-12.86-.48-25.7.98-38.25,4.34h0c-2.18,2.93-5.25,3.2-9.14.83-17.61-10.75-78.69-44.7-125.41-30.05-14.11,4.43-34.52,15.78-51.6,44.75-18.02,30.56-14.85,61.08-13.81,71.1,3.05,29.33,16.16,56.75,38.97,81.49,18.41,19.97,37.81,32.09,45.5,35.71h0Z"/>
  <g>
    <path class="cls-4" d="m312.9,185.75c-15.63-12.86-31.26-25.71-46.88-38.57"/>
    <path class="cls-3" d="m312.9,185.75c-2.86.64-5.23-1.59-7.4-2.95,0,0-6.37-4.2-6.37-4.2-8.45-5.63-16.65-11.58-24.76-17.68-4.09-2.99-8.1-6.09-11.21-10.27l5.71-6.95c4.7,2.25,8.51,5.58,12.24,9.02,7.54,6.78,14.97,13.68,22.12,20.89,0,0,5.35,5.44,5.35,5.44,1.74,1.85,4.4,3.77,4.32,6.69h0Z"/>
  </g>
</svg>